<svg xmlns="http://www.w3.org/2000/svg" xmlns:xlink="http://www.w3.org/1999/xlink" fill="#475569" height="800px" width="800px" version="1.1" id="Capa_1" viewBox="0 0 388.98 388.98" xml:space="preserve">
<g>
	<path d="M331.79,162.36c-2.297,0-4.581,0.143-6.845,0.414c-9.998-21.053-29.171-50.505-63.614-70.756   c-0.703-6.768-1.679-13.768-2.993-20.963c7.487-0.316,18.112,1.43,24.347,12.17c7.008,12.063,32.664,49.302,81.657,49.301   c3.314,0,6.736-0.17,10.265-0.53c1.937-0.198,3.451-1.762,3.584-3.705c0.126-1.837-1.015-3.508-2.739-4.074   c-0.038-0.014-0.077-0.027-0.115-0.04c-1.291-0.512-16.771-7.316-34.867-44.756c-10.601-21.939-19.667-34.731-29.398-41.479   c-9.991-6.928-20.825-7.826-35.129-2.911c-9.686,3.331-16.832,10.83-21.626,17.669c-0.95-3.718-1.987-7.47-3.133-11.257   c-0.64-2.115-2.875-3.311-4.987-2.669c-2.115,0.64-3.31,2.873-2.669,4.987c17.487,57.743,10.892,108.568,4.892,135.148   c-0.517-0.014-1.032-0.037-1.55-0.037c-2.615,0-5.246,0.181-7.811,0.537c-17.112,2.334-32.321,12.438-41.215,27.21   c-4.435-0.412-8.946-0.63-13.519-0.63c-9.041,0-17.849,0.836-26.275,2.404c5.778-24.998,17.131-45.749,33.816-61.732   c0.783-0.75,1.228-1.785,1.233-2.869c0.005-1.083-0.429-2.123-1.205-2.881c-2.695-2.633-11.431-13.667-14.57-17.697   c-1.173-1.505-3.245-1.973-4.952-1.116l-31.003,15.577c-4.423-3.018-15.582-9.895-31.182-14.346   c-17.333-4.946-43.392-7.61-71.729,6.177v-3.573c0-1.149-0.495-2.243-1.357-3.002s-2.011-1.11-3.15-0.965l-30.46,3.9   c-2.066,0.265-3.583,2.07-3.488,4.151l3.2,69.76c0.098,2.133,1.854,3.814,3.99,3.817l26.71,0.04   c1.166,0.009,2.324-0.539,3.085-1.458c0.761-0.919,1.07-2.14,0.845-3.313c-0.388-2.021-0.698-7.9,2.479-10.787   c2.972-2.7,8.881-2.853,17.089-0.443c11.783,3.456,20.701,4.75,27.279,4.997c-17.885,16.396-49.141,55.647-41.237,125.037   c0.228,2.005,1.914,3.526,3.932,3.547c4.679,0.049,16.639,0.074,36.405,0.074c3.624,0,7.528-0.001,11.681-0.003   c18.681,21.765,52.064,35.768,88.862,35.768c45.711,0,86.172-21.6,99.699-52.857c11.509-0.571,20.698-10.113,20.698-21.762   c0-7.057-3.377-13.336-8.595-17.32c0.113-0.192,0.233-0.381,0.344-0.574c10.052,7.908,22.407,12.215,35.319,12.215   c31.535,0,57.19-25.655,57.19-57.19C388.98,188.02,363.325,162.36,331.79,162.36z M278.544,42.596   c20.48-7.036,33.895-2.802,54.723,40.306c10.951,22.658,21.195,34.968,28.558,41.579c-43.134-1.3-65.91-34.408-72.222-45.273   c-7.892-13.593-21.051-16.167-29.881-16.167c-0.871,0-1.699,0.025-2.476,0.067C260.943,56.391,268.047,46.206,278.544,42.596z    M260.84,154.32c1.689-13.892,2.742-31.845,1.347-52.379c28.383,18.311,45.174,43.604,54.481,62.452   c-0.562,0.154-1.123,0.311-1.681,0.483c-13.905,4.266-25.605,13.695-32.79,26.219c-7.521-5.916-16.327-9.804-25.686-11.397   C258.072,172.692,259.645,164.153,260.84,154.32z M51.025,313.237c-8.179-85.547,46.132-120.85,49.409-122.895   c0.282-0.163,0.546-0.358,0.774-0.575c1.434-1.366,1.633-3.565,0.495-5.186c-1.139-1.621-3.31-2.154-5.083-1.269   c0,0-0.001,0-0.001,0.001c-0.232,0.107-10.216,4.485-36.963-3.361c-11.218-3.293-19.55-2.539-24.767,2.24   c-4.267,3.91-5.22,9.478-5.275,13.432l-18.594-0.027L8.164,133.33l22.295-2.854v5.645c0,1.422,0.755,2.737,1.983,3.454   c1.229,0.718,2.745,0.729,3.983,0.029c22.559-12.73,46.541-15.646,71.276-8.667c18.634,5.258,30.745,14.469,30.861,14.559   c1.218,0.941,2.867,1.102,4.243,0.41l30.235-15.191c2.652,3.366,7.225,9.11,10.516,12.915   c-17.112,17.489-28.558,39.893-34.099,66.655c-31.352,7.971-56.193,26.455-65.607,50.438c-11.144,0.95-19.921,10.323-19.921,21.709   c0,11.649,9.188,21.192,20.698,21.762c1.356,3.133,2.994,6.164,4.869,9.091C70.479,313.286,57.772,313.271,51.025,313.237z    M282.934,296.219c-0.385,0-0.787-0.019-1.231-0.059c-1.786-0.162-3.461,0.892-4.095,2.571   c-11.194,29.626-49.553,50.318-93.282,50.318c-35.302,0-67.096-13.49-83.932-34.275c-0.091-0.112-0.175-0.23-0.277-0.332   c-3.891-4.868-6.965-10.131-9.073-15.711c-0.592-1.567-2.09-2.586-3.74-2.586c-0.118,0-0.236,0.005-0.355,0.016   c-0.444,0.04-0.847,0.059-1.231,0.059c-7.603,0-13.788-6.186-13.788-13.789s6.186-13.788,13.788-13.788   c0.248,0,0.493,0.007,0.737,0.02c1.795,0.082,3.423-1.013,3.999-2.71c4.884-14.398,16.695-27.507,33.257-36.912   c17.096-9.708,38.623-15.054,60.615-15.054s43.52,5.346,60.615,15.054c16.562,9.405,28.374,22.514,33.257,36.912   c0.576,1.697,2.214,2.793,3.999,2.71c0.244-0.013,0.49-0.02,0.737-0.02c7.603,0,13.789,6.185,13.789,13.788   S290.537,296.219,282.934,296.219z M284.801,260.722c-0.153-0.389-0.328-0.769-0.489-1.154c5.046-7.033,7.708-15.293,7.708-24.047   c0-3.595-0.462-7.168-1.373-10.621c-0.564-2.135-2.751-3.412-4.888-2.847c-2.136,0.563-3.411,2.752-2.847,4.888   c0.735,2.786,1.108,5.673,1.108,8.58c0,5.586-1.346,10.922-3.92,15.716c-13.368-22.251-40.753-38.403-73.442-43.519   c7.819-11.059,19.966-18.54,33.491-20.385c2.079-0.288,4.203-0.438,6.319-0.455c-1.424,5.367-2.628,9.021-3.197,10.658   c-3.612-1.701-5.971-3.601-6.057-3.671c-1.695-1.407-4.213-1.179-5.627,0.516c-1.415,1.696-1.187,4.219,0.51,5.634   c0.489,0.408,10.006,8.206,22.034,8.206c2.84,0,5.823-0.436,8.857-1.505c2.083-0.735,3.176-3.02,2.442-5.103   c-0.735-2.083-3.021-3.175-5.103-2.442c-3.229,1.139-6.449,1.233-9.417,0.776c0.724-2.069,2.123-6.32,3.72-12.451   c9.714,1.543,18.764,5.959,26.041,12.832c9.924,9.392,15.39,22.083,15.39,35.735c0,7.156-1.499,14.042-4.459,20.479   c-0.773,1.693-1.661,3.348-2.633,4.958C287.627,261.111,286.234,260.844,284.801,260.722z M331.79,268.751   c-11.697,0-22.862-4.112-31.742-11.624c2.662-6.685,4.012-13.757,4.012-21.066c0-14.877-5.582-28.772-15.784-39.448   c6.081-11.541,16.535-20.246,29.06-24.088c0.911-0.28,1.832-0.526,2.758-0.752c2.898,6.653,4.717,12.006,5.707,15.229   c-4.387,0.596-7.844,0.22-7.92,0.212c-2.195-0.264-4.18,1.294-4.448,3.484c-0.269,2.192,1.29,4.188,3.483,4.458   c0.221,0.027,1.704,0.198,3.954,0.198c6.67,0,20.07-1.5,27.235-12.676c1.192-1.86,0.651-4.334-1.209-5.526   c-1.861-1.192-4.334-0.651-5.526,1.209c-2.001,3.121-4.825,5.171-7.822,6.515c-0.939-3.166-2.587-8.183-5.169-14.392   c1.133-0.078,2.271-0.121,3.412-0.121c27.124,0,49.19,22.071,49.19,49.2C380.98,246.684,358.913,268.751,331.79,268.751z" fill="#475569"/>
	<path d="M372.53,208.935c-0.565-2.135-2.752-3.41-4.89-2.843c-2.136,0.565-3.409,2.755-2.843,4.89   c0.737,2.784,1.11,5.67,1.11,8.578c0,8.626-3.279,16.813-9.232,23.053c-1.525,1.598-1.465,4.13,0.133,5.655   c0.774,0.739,1.769,1.106,2.761,1.106c1.055,0,2.108-0.415,2.895-1.239c7.38-7.735,11.444-17.883,11.444-28.576   C373.907,215.961,373.444,212.386,372.53,208.935z" fill="#475569"/>
	<path d="M361.486,199.906c0.89,0,1.785-0.295,2.528-0.902c1.71-1.397,1.965-3.917,0.567-5.628   c-2.203-2.697-4.742-5.112-7.544-7.176c-1.779-1.31-4.283-0.93-5.593,0.848c-1.31,1.779-0.93,4.283,0.848,5.593   c2.264,1.667,4.314,3.617,6.094,5.796C359.176,199.404,360.326,199.906,361.486,199.906z" fill="#475569"/>
	<path d="M275.152,202.164c-1.777-1.312-4.283-0.931-5.593,0.848c-1.311,1.778-0.931,4.282,0.848,5.593   c2.264,1.668,4.313,3.618,6.093,5.796c0.791,0.968,1.94,1.47,3.1,1.47c0.89,0,1.785-0.295,2.528-0.902   c1.71-1.397,1.965-3.917,0.567-5.628C280.493,206.644,277.955,204.229,275.152,202.164z" fill="#475569"/>
	<path d="M225.255,225.228c-5.373-1.746-11.125-3.01-17.099-3.757c-2.195-0.272-4.192,1.281-4.465,3.473   c-0.274,2.192,1.281,4.191,3.473,4.465c5.472,0.684,10.727,1.837,15.619,3.427c0.411,0.133,0.827,0.197,1.237,0.197   c1.686,0,3.254-1.075,3.803-2.765C228.505,228.167,227.356,225.911,225.255,225.228z" fill="#475569"/>
	<path d="M240.543,232.018c-1.912-1.109-4.359-0.457-5.467,1.453c-1.108,1.911-0.458,4.359,1.453,5.467   c20.857,12.099,27.235,30.968,27.321,31.228c0.546,1.693,2.116,2.773,3.806,2.773c0.404,0,0.815-0.062,1.22-0.191   c2.104-0.673,3.264-2.925,2.59-5.029C271.182,266.828,264.215,245.749,240.543,232.018z" fill="#475569"/>
	<path d="M132.429,157.059c0.79,0.878,1.88,1.325,2.976,1.325c0.953,0,1.909-0.338,2.673-1.026c1.643-1.477,1.777-4.006,0.299-5.649   c-17.611-19.584-46.956-20.622-48.196-20.657c-2.199-0.063-4.048,1.679-4.11,3.887c-0.062,2.208,1.679,4.048,3.887,4.11   C90.228,139.057,117.087,139.999,132.429,157.059z" fill="#475569"/>
	<path d="M171.033,146.421c0.791,0.923,1.912,1.397,3.039,1.397c0.921,0,1.847-0.316,2.601-0.963   c1.677-1.438,1.872-3.963,0.434-5.64l-4-4.667c-1.437-1.677-3.961-1.872-5.64-0.434c-1.677,1.438-1.872,3.963-0.434,5.64   L171.033,146.421z" fill="#475569"/>
</g>
</svg>